name Run_400 01_newCOP3_v24.mot
datacolumns 19
datarows 41
range 1.408333 1.45
DataType=double
version=3
OpenSimVersion=4.3-2021-08-27-4bc7ad9
endheader
time	R_ground_force_vx	R_ground_force_vy	R_ground_force_vz	R_ground_force_px	R_ground_force_py	R_ground_force_pz	L_ground_force_vx	L_ground_force_vy	L_ground_force_vz	L_ground_force_px	L_ground_force_py	L_ground_force_pz	R_ground_torque_x	R_ground_torque_y	R_ground_torque_z	L_ground_torque_x	L_ground_torque_y	L_ground_torque_z
1.408333	0	0	0	0	0	0	-30.889383	232.563873	-8.060336	1.11519	0	-0.314735	0	0	0	0	-1.389511	0
1.409375	0	0	0	0	0	0	-32.860725	257.761963	-8.222419	1.113849	0	-0.314924	0	0	0	0	-2.113802	0
1.410417	0	0	0	0	0	0	-34.860268	284.819946	-8.34928	1.112472	0	-0.314972	0	0	0	0	-2.923422	0
1.411458	0	0	0	0	0	0	-36.894234	313.733917	-8.443346	1.111078	0	-0.314901	0	0	0	0	-3.812605	0
1.4125	0	0	0	0	0	0	-38.971851	344.477814	-8.508283	1.109685	0	-0.31473	0	0	0	0	-4.773731	0
1.413542	0	0	0	0	0	0	-41.105293	377.001373	-8.549018999999999	1.108304	0	-0.314474	0	0	0	0	-5.797347	0
1.414583	0	0	0	0	0	0	-43.309513	411.228424	-8.571745	1.106944	0	-0.314148	0	0	0	0	-6.872231	0
1.415625	0	0	0	0	0	0	-45.601944	447.055603	-8.58389	1.105612	0	-0.313763	0	0	0	0	-7.985489	0
1.416667	0	0	0	0	0	0	-48.002071	484.351685	-8.594082	1.104311	0	-0.313329	0	0	0	0	-9.122693	0
1.417708	0	0	0	0	0	0	-50.530926	522.957581	-8.612071	1.103046	0	-0.312855	0	0	0	0	-10.268046	0
1.41875	0	0	0	0	0	0	-53.210506	562.687134	-8.648642000000001	1.101817	0	-0.312348	0	0	0	0	-11.404596	0
1.419792	0	0	0	0	0	0	-56.063145	603.328674	-8.715490000000001	1.100626	0	-0.311815	0	0	0	0	-12.514474	0
1.420833	0	0	0	0	0	0	-59.110867	644.647644	-8.825081000000001	1.099471	0	-0.311263	0	0	0	0	-13.57916	0
1.421875	0	0	0	0	0	0	-62.374752	686.389832	-8.990481000000001	1.098352	0	-0.310696	0	0	0	0	-14.579782	0
1.422917	0	0	0	0	0	0	-65.87432099999999	728.285706	-9.225163	1.097267	0	-0.310121	0	0	0	0	-15.49744	0
1.423958	0	0	0	0	0	0	-69.626991	770.055359	-9.542790999999999	1.096214	0	-0.309542	0	0	0	0	-16.313534	0
1.425	0	0	0	0	0	0	-73.647583	811.413879	-9.956987	1.095191	0	-0.308962	0	0	0	0	-17.010111	0
1.426042	0	0	0	0	0	0	-77.94787599999999	852.077637	-10.481073	1.094195	0	-0.308387	0	0	0	0	-17.570229	0
1.427083	0	0	0	0	0	0	-82.536278	891.770264	-11.127799	1.093223	0	-0.307819	0	0	0	0	-17.978296	0
1.428125	0	0	0	0	0	0	-87.417542	930.229065	-11.909066	1.092272	0	-0.307263	0	0	0	0	-18.220428	0
1.429167	0	0	0	0	0	0	-92.59253699999999	967.210815	-12.835633	1.091339	0	-0.306722	0	0	0	0	-18.284769	0
1.430208	0	0	0	0	0	0	-98.058044	1002.497559	-13.916826	1.09042	0	-0.3062	0	0	0	0	-18.161806	0
1.43125	0	0	0	0	0	0	-103.806686	1035.901367	-15.16025	1.089511	0	-0.305699	0	0	0	0	-17.844646	0
1.432292	0	0	0	0	0	0	-109.826736	1067.268555	-16.571507	1.088608	0	-0.305222	0	0	0	0	-17.329264	0
1.433333	0	0	0	0	0	0	-116.102089	1096.482666	-18.153944	1.087706	0	-0.304773	0	0	0	0	-16.614702	0
1.434375	0	0	0	0	0	0	-122.612213	1123.466309	-19.9084	1.086801	0	-0.304354	0	0	0	0	-15.703227	0
1.435417	0	0	0	0	0	0	-129.332092	1148.182495	-21.833012	1.085889	0	-0.303968	0	0	0	0	-14.60043	0
1.436458	0	0	0	0	0	0	-136.232361	1170.634033	-23.92304	1.084963	0	-0.303618	0	0	0	0	-13.315271	0
1.4375	0	0	0	0	0	0	-143.279373	1190.862427	-26.17074	1.08402	0	-0.303305	0	0	0	0	-11.860063	0
1.438542	0	0	0	0	0	0	-150.435486	1208.945557	-28.565302	1.083052	0	-0.303032	0	0	0	0	-10.250386	0
1.439583	0	0	0	0	0	0	-157.659409	1224.994629	-31.092821	1.082055	0	-0.3028	0	0	0	0	-8.504953	0
1.440625	0	0	0	0	0	0	-164.906769	1239.150757	-33.736355	1.081022	0	-0.30261	0	0	0	0	-6.645388	0
1.441667	0	0	0	0	0	0	-172.130753	1251.579956	-36.476028	1.079947	0	-0.302463	0	0	0	0	-4.695958	0
1.442708	0	0	0	0	0	0	-179.282883	1262.469849	-39.28923	1.078823	0	-0.302358	0	0	0	0	-2.683239	0
1.44375	0	0	0	0	0	0	-186.314041	1272.023315	-42.150829	1.077645	0	-0.302295	0	0	0	0	-0.635728	0
1.444792	0	0	0	0	0	0	-193.1754	1280.4552	-45.033516	1.076406	0	-0.302271	0	0	0	-0	1.416598	-0
1.445833	0	0	0	0	0	0	-199.819489	1287.986694	-47.908173	1.075099	0	-0.302286	0	0	0	-0	3.442767	-0
1.446875	0	0	0	0	0	0	-206.201279	1294.840576	-50.744297	1.07372	0	-0.302334	0	0	0	-0	5.411329	-0
1.447917	0	0	0	0	0	0	-212.279129	1301.237427	-53.510506	1.072263	0	-0.302413	0	0	0	-0	7.2909	-0
1.448958	0	0	0	0	0	0	-218.015594	1307.391357	-56.175045	1.070723	0	-0.302517	0	0	0	-0	9.050727	-0
1.45	0	0	0	0	0	0	-223.378143	1313.505859	-58.706375	1.069096	0	-0.302642	0	0	0	-0	10.661249	-0
